<!DOCTYPE svg PUBLIC "-//W3C//DTD SVG 1.1//EN" "http://www.w3.org/Graphics/SVG/1.1/DTD/svg11.dtd">
<!-- Uploaded to: SVG Repo, www.svgrepo.com, Transformed by: SVG Repo Mixer Tools -->
<svg fill="#b79f67" width="800px" height="800px" viewBox="0 0 24 24" xmlns="http://www.w3.org/2000/svg" stroke="#b79f67">
<g id="SVGRepo_bgCarrier" stroke-width="0"/>
<g id="SVGRepo_tracerCarrier" stroke-linecap="round" stroke-linejoin="round"/>
<g id="SVGRepo_iconCarrier">
<path d="M18.846,2H5.154A4.106,4.106,0,0,0,1.015,5.661,4,4,0,0,0,3,9.451V19a3,3,0,0,0,3,3H18a3,3,0,0,0,3-3V9.451a4,4,0,0,0,1.985-3.79A4.106,4.106,0,0,0,18.846,2ZM5,19V8.816a1,1,0,0,0-.665-.942A1.978,1.978,0,0,1,3.007,5.827,2.1,2.1,0,0,1,5.154,4h9.692a2.1,2.1,0,0,1,2.147,1.827,1.978,1.978,0,0,1-1.328,2.047A1,1,0,0,0,15,8.816V19a1,1,0,0,1-1,1H6A1,1,0,0,1,5,19ZM19.665,7.874A1,1,0,0,0,19,8.816V19a1,1,0,0,1-1,1H16.829c.364-1.032.056-2.011.171-10.549A3.96,3.96,0,0,0,18.444,4h.4a2.1,2.1,0,0,1,2.147,1.827A1.978,1.978,0,0,1,19.665,7.874Z"/>
</g>
</svg>